<?xml version="1.0" encoding="utf-8"?>
<!-- Generator: Adobe Illustrator 23.0.3, SVG Export Plug-In . SVG Version: 6.00 Build 0)  -->
<svg version="1.1" id="Layer_1" xmlns="http://www.w3.org/2000/svg" xmlns:xlink="http://www.w3.org/1999/xlink" x="0px" y="0px"
	 viewBox="0 0 512 512" style="enable-background:new 0 0 512 512;" xml:space="preserve">
<path d="M256,19C164.2,19.1,89.9,93.5,89.8,185.2c0.8,21.6,5,43,12.5,63.3c28,82.5,94.8,181,148.5,242.1c2.6,2.9,7,3.2,9.9,0.6
	c0.2-0.2,0.4-0.4,0.6-0.6C315,429.5,381.7,331,409.7,248.5c7.5-20.3,11.7-41.6,12.5-63.3C422.1,93.5,347.8,19.1,256,19L256,19z
	 M396.5,244C370,322,307.8,415,256,475.3C204.2,415,142,322,115.5,244c-7-18.8-11-38.7-11.7-58.8c-0.4-84.1,67.4-152.6,151.5-153
	s152.6,67.4,153,151.5c0,0.5,0,1,0,1.6C407.5,205.3,403.5,225.2,396.5,244L396.5,244z"/>
<path d="M365.7,275.3c3.5,1.5,7.6-0.1,9.2-3.6c4.8-10.9,8.8-21.3,12.1-30.9c6.6-17.8,10.4-36.5,11.2-55.5c0-3.9-3.1-7-7-7
	s-7,3.1-7,7c-0.8,17.5-4.3,34.7-10.5,51c-3.1,9.2-7.1,19.3-11.7,29.8C360.5,269.6,362.1,273.8,365.7,275.3L365.7,275.3z"/>
<path d="M256,98.6c-47.8,0-86.6,38.8-86.6,86.6s38.8,86.6,86.6,86.6s86.6-38.8,86.6-86.6l0,0C342.6,137.4,303.8,98.7,256,98.6z
	 M256,257.8c-40.1,0-72.6-32.5-72.6-72.6s32.5-72.6,72.6-72.6s72.6,32.5,72.6,72.6C328.6,225.3,296.1,257.8,256,257.8L256,257.8z"/>
</svg>
